<?xml version="1.0" standalone="no"?>
<!DOCTYPE svg PUBLIC "-//W3C//DTD SVG 20010904//EN"
 "http://www.w3.org/TR/2001/REC-SVG-20010904/DTD/svg10.dtd">
<svg version="1.0" xmlns="http://www.w3.org/2000/svg"
 width="570.000000pt" height="570.000000pt" viewBox="0 0 570.000000 570.000000"
 preserveAspectRatio="xMidYMid meet">
<metadata>
Created by potrace 1.14, written by Peter Selinger 2001-2017
</metadata>
<g transform="translate(0.000000,570.000000) scale(0.100000,-0.100000)"
fill="#000000" stroke="none">
<path d="M126 3305 c-9 -13 -16 -26 -16 -29 0 -2 -25 -45 -55 -94 l-55 -90 0
-345 c0 -301 2 -348 16 -361 14 -14 69 -16 462 -16 356 1 451 3 465 14 16 12
17 41 17 359 l0 346 -71 121 -71 120 -338 0 -338 0 -16 -25z m695 -124 c24
-41 46 -79 47 -83 2 -4 -172 -8 -387 -8 -215 0 -391 2 -391 4 0 8 72 130 86
147 12 14 52 16 307 16 l293 0 45 -76z m-563 -230 c7 -4 15 -23 18 -42 9 -62
24 -95 57 -127 127 -123 326 -54 350 122 6 48 27 65 56 47 36 -23 5 -143 -55
-210 -126 -140 -337 -120 -439 40 -13 20 -27 54 -30 75 -4 22 -9 46 -11 55 -3
9 3 24 11 33 19 18 25 19 43 7z"/>
<path d="M5455 3131 c-17 -5 -20 -14 -20 -56 0 -50 0 -50 -33 -49 -32 0 -32 0
-32 -47 0 -45 1 -47 25 -44 34 3 42 -15 39 -95 -1 -74 18 -135 50 -152 32 -17
97 -27 121 -18 17 7 20 15 17 48 -3 28 -8 39 -20 39 -58 0 -65 12 -66 111 -1
48 2 62 14 63 8 0 28 2 44 2 27 2 30 5 31 40 2 43 -5 51 -52 49 -35 -1 -35 -2
-36 66 0 23 -5 42 -11 43 -6 0 -20 2 -31 3 -11 1 -29 0 -40 -3z"/>
<path d="M1515 3016 c-41 -19 -69 -45 -89 -85 -19 -36 -23 -112 -8 -152 36
-94 175 -139 240 -78 l22 20 0 -43 c0 -24 -6 -50 -13 -59 -33 -43 -104 -45
-146 -5 -27 26 -28 26 -60 10 -43 -22 -48 -40 -20 -70 37 -39 77 -56 140 -59
85 -3 150 30 184 94 14 29 17 63 18 227 0 107 -1 196 -4 198 -2 2 -15 5 -29 6
-50 4 -70 0 -70 -15 0 -14 -4 -13 -32 1 -44 23 -97 27 -133 10z m121 -92 c56
-27 61 -115 7 -145 -63 -36 -128 0 -128 70 0 43 24 77 59 84 11 2 23 5 24 6 2
0 19 -6 38 -15z"/>
<path d="M1887 3019 c-9 -5 -12 -49 -10 -166 0 -87 2 -164 2 -170 1 -9 18 -13
51 -13 l50 0 0 85 c0 47 0 87 0 90 0 3 7 19 15 35 15 29 52 47 88 41 16 -2 18
4 15 51 -3 52 -4 53 -33 51 -16 -1 -42 -12 -57 -23 l-28 -21 0 21 c0 11 -6 20
-12 21 -7 0 -25 2 -41 3 -15 1 -33 -1 -40 -5z"/>
<path d="M2244 3016 c-92 -40 -139 -149 -104 -240 13 -36 75 -91 115 -103 99
-31 211 17 246 105 12 31 11 104 -2 139 -34 89 -162 139 -255 99z m114 -90
c31 -10 55 -60 46 -99 -21 -98 -160 -85 -168 15 -3 37 6 55 41 79 24 16 43 18
81 5z"/>
<path d="M2675 3011 c-91 -42 -124 -117 -100 -228 7 -30 63 -93 92 -104 42
-16 104 -19 146 -8 41 11 107 68 107 93 0 6 -19 19 -41 27 -40 15 -43 14 -65
-8 -15 -15 -35 -23 -59 -23 -85 0 -117 115 -44 159 37 23 77 19 101 -9 9 -11
22 -20 28 -20 18 0 80 31 80 40 0 5 -12 22 -26 40 -50 59 -142 77 -219 41z"/>
<path d="M3083 3016 c-114 -52 -148 -201 -67 -292 64 -72 206 -80 276 -17 26
24 22 39 -16 61 -30 18 -35 18 -48 5 -9 -8 -33 -17 -54 -20 -30 -4 -45 0 -66
17 -52 40 -39 47 95 47 l122 -1 0 57 c0 60 -17 93 -68 131 -35 26 -129 32
-174 12z m129 -97 c11 -13 15 -25 9 -28 -16 -10 -135 -4 -139 7 -1 5 9 19 23
31 34 26 82 22 107 -10z"/>
<path d="M3409 3015 c-1 -5 -2 -85 -3 -178 l-1 -167 53 0 52 0 0 90 c0 127 26
168 103 162 14 -1 17 8 17 53 l0 53 -37 -4 c-21 -3 -48 -14 -60 -26 l-23 -21
0 21 c0 12 -3 22 -7 23 -43 5 -93 2 -94 -6z"/>
<path d="M3650 3021 c0 -2 14 -34 31 -70 74 -155 109 -234 109 -245 0 -7 -18
-56 -39 -109 -22 -53 -36 -98 -33 -100 4 -2 27 -3 52 -2 48 1 49 3 84 85 91
215 174 435 167 440 -5 3 -29 5 -52 4 l-43 -1 -23 -64 c-28 -76 -54 -132 -58
-127 -1 2 -20 44 -41 93 -20 50 -39 92 -40 94 -4 5 -114 7 -114 2z"/>
<path d="M4101 3022 c-8 -3 -11 -56 -11 -178 l0 -174 50 0 c48 0 50 1 51 28 0
15 1 66 2 114 2 97 14 121 62 121 50 0 58 -20 58 -147 l1 -116 51 0 51 0 -1
106 c0 58 4 115 10 127 15 31 60 39 87 17 21 -16 23 -27 24 -127 1 -59 2 -111
3 -115 0 -5 24 -8 52 -8 l51 0 -4 143 c-3 113 -7 147 -21 168 -36 55 -120 66
-182 23 l-37 -25 -20 20 c-37 40 -121 40 -164 0 l-22 -21 -4 23 c-2 18 -10 22
-39 24 -20 0 -41 -1 -48 -3z"/>
<path d="M4804 3019 c-29 -8 -84 -53 -84 -69 0 -3 18 -16 39 -28 40 -22 40
-22 54 -2 21 30 68 36 97 12 32 -26 21 -52 -22 -53 -93 -2 -148 -23 -167 -66
-36 -78 29 -156 123 -147 22 2 54 14 69 25 26 19 28 19 25 2 -2 -15 5 -19 45
-21 l47 -3 0 133 c0 116 -3 137 -20 166 -34 55 -120 76 -206 51z m124 -221 c9
-45 -86 -80 -107 -39 -11 20 2 45 28 53 32 9 76 2 79 -14z"/>
<path d="M5145 3022 c-20 -3 -21 -9 -21 -178 l0 -175 50 3 51 3 2 84 c1 46 4
95 7 107 8 29 40 51 81 57 29 4 30 6 30 53 0 45 -2 49 -25 50 -29 1 -52 -9
-74 -32 -15 -15 -21 -9 -18 17 1 8 -54 15 -83 11z"/>
</g>
</svg>
